<?xml version="1.0" standalone="no"?>
<!DOCTYPE svg PUBLIC "-//W3C//DTD SVG 20010904//EN"
 "http://www.w3.org/TR/2001/REC-SVG-20010904/DTD/svg10.dtd">
<svg version="1.0" xmlns="http://www.w3.org/2000/svg"
 width="700.000000pt" height="700.000000pt" viewBox="0 0 700.000000 700.000000"
 preserveAspectRatio="xMidYMid meet">
<g transform="translate(0.000000,700.000000) scale(0.100000,-0.100000)"
fill="#000000" stroke="none">
<path d="M3278 6996 c-1 -2 -41 -6 -88 -10 -82 -6 -120 -11 -185 -21 -16 -3
-50 -8 -75 -11 -111 -14 -379 -80 -528 -130 -531 -178 -967 -445 -1362 -834
-444 -437 -760 -982 -924 -1590 -26 -97 -70 -316 -82 -405 -3 -27 -8 -59 -10
-70 -25 -128 -25 -701 0 -830 2 -11 7 -47 10 -80 4 -33 9 -67 11 -75 3 -8 7
-31 9 -50 16 -128 140 -567 190 -675 8 -16 26 -59 41 -95 246 -590 719 -1157
1275 -1527 365 -243 781 -419 1200 -508 41 -9 82 -18 90 -20 50 -10 191 -30
300 -42 156 -17 685 -9 802 12 13 3 39 6 58 9 261 35 605 132 860 243 86 37
264 125 331 163 41 24 89 51 107 61 27 16 180 119 266 179 28 20 104 79 140
110 415 353 688 697 917 1157 50 100 91 187 93 195 1 7 5 19 9 25 9 15 95 253
107 298 11 39 51 186 56 205 2 8 10 44 18 80 15 70 21 102 41 225 3 22 8 51
10 65 28 161 27 795 0 900 -2 8 -7 38 -10 65 -5 46 -24 155 -40 230 -21 100
-95 364 -115 410 -5 11 -18 45 -28 76 -91 254 -264 576 -441 819 -190 263
-442 523 -696 720 -78 61 -309 220 -320 220 -2 0 -30 16 -60 36 -86 54 -316
167 -455 222 -246 98 -520 174 -745 208 -27 4 -52 8 -55 9 -3 1 -41 5 -85 10
-44 4 -89 10 -100 12 -26 4 -532 12 -537 9z"/>
</g>
</svg>
