<svg width="105" height="28" viewBox="0 0 105 28" fill="none" xmlns="http://www.w3.org/2000/svg">
<path fill-rule="evenodd" clip-rule="evenodd" d="M35.5721 0.976202L22.9635 26.2377C22.7804 26.6047 23.0473 27.0363 23.4576 27.0363H48.6747C49.0849 27.0363 49.3518 26.6047 49.1687 26.2377L36.5601 0.976202C36.3567 0.568765 35.7756 0.568765 35.5721 0.976202Z" fill="#54E4C5"/>
<mask id="mask0" mask-type="alpha" maskUnits="userSpaceOnUse" x="0" y="0" width="12" height="21">
<path fill-rule="evenodd" clip-rule="evenodd" d="M6.10352e-05 0.201004H11.3657V20.0836H6.10352e-05V0.201004Z" fill="white"/>
</mask>
<g mask="url(#mask0)">
<path fill-rule="evenodd" clip-rule="evenodd" d="M11.3657 20.0836C5.0885 20.0836 6.10352e-05 15.6327 6.10352e-05 10.1422C6.10352e-05 4.652 5.0885 0.200943 11.3657 0.200943V20.0836Z" fill="#54E4C5"/>
</g>
<path fill-rule="evenodd" clip-rule="evenodd" d="M11.3699 7.34447C17.6471 7.34447 22.7356 11.7953 22.7356 17.2858C22.7356 22.776 17.6471 27.2271 11.3699 27.2271V7.34447Z" fill="#FFD400"/>
<path fill-rule="evenodd" clip-rule="evenodd" d="M53.8864 13.7473H56.4796C56.7827 13.7473 57.0283 13.9929 57.0283 14.296V26.1758C57.0283 26.4787 56.7827 26.7246 56.4796 26.7246H53.8864C53.5833 26.7246 53.3376 26.4787 53.3376 26.1758V14.296C53.3376 13.9929 53.5833 13.7473 53.8864 13.7473Z" fill="#FFD400"/>
<path fill-rule="evenodd" clip-rule="evenodd" d="M52.147 6.01947C52.147 3.08359 54.5269 0.703491 57.463 0.703491C60.3989 0.703491 62.7788 3.08359 62.7788 6.01947C62.7788 8.95535 60.3989 11.3352 57.463 11.3352C54.5269 11.3352 52.147 8.95535 52.147 6.01947Z" fill="#54E4C5"/>
<path fill-rule="evenodd" clip-rule="evenodd" d="M74.8827 21.4086C74.8827 24.3445 72.5026 26.7244 69.5667 26.7244C66.6308 26.7244 64.2509 24.3445 64.2509 21.4086C64.2509 18.4728 66.6308 16.0927 69.5667 16.0927C72.5026 16.0927 74.8827 18.4728 74.8827 21.4086Z" fill="#54E4C5"/>
<path fill-rule="evenodd" clip-rule="evenodd" d="M66.1728 13.714C66.1728 15.182 64.9829 16.3719 63.5147 16.3719C62.047 16.3719 60.8568 15.182 60.8568 13.714C60.8568 12.2461 62.047 11.0561 63.5147 11.0561C64.9829 11.0561 66.1728 12.2461 66.1728 13.714Z" fill="#54E4C5"/>
<path fill-rule="evenodd" clip-rule="evenodd" d="M70.5533 0.703537H73.1401C73.445 0.703537 73.692 0.950572 73.692 1.2555V13.1287C73.692 13.4336 73.445 13.6808 73.1401 13.6808H70.5533C70.2484 13.6808 70.0014 13.4336 70.0014 13.1287V1.2555C70.0014 0.950572 70.2484 0.703537 70.5533 0.703537Z" fill="#FFD400"/>
<mask id="mask1" mask-type="alpha" maskUnits="userSpaceOnUse" x="77" y="1" width="28" height="25">
<path fill-rule="evenodd" clip-rule="evenodd" d="M77.6053 1.52881H104.631V25.8993H77.6053V1.52881Z" fill="white"/>
</mask>
<g mask="url(#mask1)">
<path fill-rule="evenodd" clip-rule="evenodd" d="M99.1615 25.8993C102.48 23.4372 104.631 19.4912 104.631 15.0418C104.631 7.57866 98.5812 1.52881 91.1183 1.52881C83.6552 1.52881 77.6053 7.57866 77.6053 15.0418C77.6053 19.4912 79.7569 23.4367 83.0753 25.8987L91.1183 9.30328L99.1615 25.8993Z" fill="#FFD400"/>
</g>
</svg>
